<svg version="1.1" viewBox="0.0 0.0 108.66666666666667 108.76115485564304" fill="none" stroke="none" stroke-linecap="square" stroke-miterlimit="10" xmlns:xlink="http://www.w3.org/1999/xlink" xmlns="http://www.w3.org/2000/svg"><clipPath id="p.0"><path d="m0 0l108.666664 0l0 108.761154l-108.666664 0l0 -108.761154z" clip-rule="nonzero"/></clipPath><g clip-path="url(#p.0)"><path fill="#000000" fill-opacity="0.0" d="m0 0l108.666664 0l0 108.761154l-108.666664 0z" fill-rule="evenodd"/><path fill="#666666" d="m1.7349081 54.380577l0 0c0 -29.049307 23.549118 -52.598427 52.598423 -52.598427l0 0c13.94997 0 27.328587 5.541604 37.192707 15.405722c9.864113 9.864119 15.405716 23.242733 15.405716 37.192703l0 0c0 29.049309 -23.54911 52.598427 -52.598423 52.598427l0 0c-29.049307 0 -52.598423 -23.549118 -52.598423 -52.598427z" fill-rule="evenodd"/><path stroke="#000000" stroke-width="3.0" stroke-linejoin="round" stroke-linecap="butt" d="m1.7349081 54.380577l0 0c0 -29.049307 23.549118 -52.598427 52.598423 -52.598427l0 0c13.94997 0 27.328587 5.541604 37.192707 15.405722c9.864113 9.864119 15.405716 23.242733 15.405716 37.192703l0 0c0 29.049309 -23.54911 52.598427 -52.598423 52.598427l0 0c-29.049307 0 -52.598423 -23.549118 -52.598423 -52.598427z" fill-rule="evenodd"/><path fill="#e06666" d="m8.317585 54.380577l0 0c0 -25.413795 20.601952 -46.015747 46.015747 -46.015747l0 0c12.204136 0 23.90842 4.848074 32.53805 13.4777c8.629623 8.629627 13.477699 20.333912 13.477699 32.538048l0 0c0 25.413795 -20.601952 46.015747 -46.01575 46.015747l0 0c-25.413795 0 -46.015747 -20.601952 -46.015747 -46.015747z" fill-rule="evenodd"/><path stroke="#000000" stroke-width="1.0" stroke-linejoin="round" stroke-linecap="butt" d="m8.317585 54.380577l0 0c0 -25.413795 20.601952 -46.015747 46.015747 -46.015747l0 0c12.204136 0 23.90842 4.848074 32.53805 13.4777c8.629623 8.629627 13.477699 20.333912 13.477699 32.538048l0 0c0 25.413795 -20.601952 46.015747 -46.01575 46.015747l0 0c-25.413795 0 -46.015747 -20.601952 -46.015747 -46.015747z" fill-rule="evenodd"/><path fill="#ff0000" d="m19.986877 54.380577l0 0c0 -18.969025 15.37743 -34.34646 34.346455 -34.34646l0 0c9.109249 0 17.845402 3.6186352 24.286617 10.059845c6.441208 6.44121 10.059837 15.177366 10.059837 24.286612l0 0c0 18.969025 -15.377426 34.34646 -34.346455 34.34646l0 0c-18.969025 0 -34.346455 -15.377434 -34.346455 -34.34646z" fill-rule="evenodd"/></g></svg>